<!DOCTYPE svg PUBLIC "-//W3C//DTD SVG 1.1//EN" "http://www.w3.org/Graphics/SVG/1.1/DTD/svg11.dtd">
<!-- Uploaded to: SVG Repo, www.svgrepo.com, Transformed by: SVG Repo Mixer Tools -->
<svg fill="#e95555" version="1.1" id="Capa_1" xmlns="http://www.w3.org/2000/svg" xmlns:xlink="http://www.w3.org/1999/xlink" width="800px" height="800px" viewBox="0 0 103.859 103.859" xml:space="preserve">
<g id="SVGRepo_bgCarrier" stroke-width="0"/>
<g id="SVGRepo_tracerCarrier" stroke-linecap="round" stroke-linejoin="round"/>
<g id="SVGRepo_iconCarrier"> <g> <path d="M64.911,103.845H45.942c1.969-2.353,8.791-6.824,14.402-6.661C65.96,97.348,64.9,103.845,64.911,103.845z M23.581,97.184 c-5.611,0.164-4.564,6.661-4.564,6.661h18.971C36.015,101.503,29.191,97.031,23.581,97.184z M16.398,48.151 c-1.187,1.018-2.565,1.039-3.995,0.33L3.341,64.178c-0.475,0.828-1.545,1.118-2.365,0.627c-0.831-0.475-1.118-1.523-0.633-2.362 L9.669,46.29c-0.005-0.005-0.005-0.005-0.01-0.011c-2.387-2.808-1.393-4.867,0.422-6.652c1.658-1.627,2.618-2.122,4.034-1.031 l2.953-5.115c0.799-1.371,0.324-3.148-1.058-3.937c-1.368-0.799-3.143-0.33-3.937,1.052c-0.482,0.828-1.54,1.107-2.365,0.633 c-0.828-0.475-1.113-1.54-0.633-2.365c1.743-3.035,5.632-4.071,8.667-2.328c3.035,1.745,4.076,5.637,2.328,8.672l-2.365,4.095 c0.907,0.248,1.991,1.772,1.814,3.687c-0.164,1.643-1.174,2.982-2.057,3.436C17.273,47.1,16.928,47.703,16.398,48.151z M16.5,41.396c0.032,0.05,0.082,0.098,0.108,0.153c-0.005-0.124,0.005-0.227,0.005-0.345L16.5,41.396z M102.125,36.495 c-0.944,3.108-10.404,4.973-11.834,6.059c-1.882,1.408-2.932,2.829-3.564,4.005c0.664-0.454,1.519-0.959,2.615-1.434 c2.405-1.023,7.156-1.87,7.32-1.577c0.194,0.356,0.675,3.924-1.994,5.938c-2.452,1.854-7.979,2.144-7.979,2.544 c0,3.151-1.329,7.718-1.329,13.266c0,4.524-2.347,8.194-6.865,8.194c-4.52,0-6.855-3.67-6.855-8.194 c0-5.543-1.34-10.104-1.34-13.266c0-0.417-5.01-0.648-7.436-2.494c-2.668-2.036-2.7-5.683-2.489-6.049 c0.153-0.264,4.946,0.599,7.356,1.638c0.896,0.393,1.63,0.799,2.221,1.187c-0.644-1.129-1.688-2.447-3.428-3.752 c-0.817-0.617-4.235-1.503-7.204-2.716c-0.227-0.557-0.448-1.113-0.785-1.617c1.049-1.15,1.655-2.663,1.655-4.255 c0-1.5-0.554-2.927-1.529-4.056c0.042-0.177,0.063-0.366,0.063-0.577l0.048-0.388c0.115-1.05,0.358-3.204-0.307-5.537 c1.113-1.305,2.157-2.494,2.399-1.65c0.755,2.586-3.981,6.818,0.111,11.847c0.554,0.675,1.139,1.35,1.74,2.025 c0.564,0.623,0.732-7.219,1.561-7.053c1.577,0.343-0.332,9.144,3.101,11.707c3.012,2.241,5.68,4.382,7.673,5.45 c0.949-0.383,2.062-0.604,3.434-0.604c1.323,0,2.394,0.216,3.327,0.567c1.978-1.081,4.625-3.193,7.609-5.413 c3.434-2.563,1.52-11.37,3.102-11.707c0.817-0.166,0.996,7.676,1.561,7.053c0.596-0.675,1.182-1.35,1.729-2.025 c4.098-5.023-0.638-9.26,0.116-11.847c0.501-1.725,4.351,5.055,5.289,3.931c1.524-1.798-0.306-4.833,1.604-3.667 c3.549,2.159-4.203,9.748-4.15,13.294C98.719,37.444,103.422,32.244,102.125,36.495z M74.482,55.191 c0.87,0,1.577-0.706,1.577-1.579c0-0.875-0.701-1.577-1.577-1.577c-0.864,0-1.576,0.702-1.576,1.577 C72.906,54.485,73.618,55.191,74.482,55.191z M81.886,67.131c0-1.835-1.477-1.508-3.312-1.508c-1.846,0-3.322-0.327-3.322,1.508 c0,1.846,1.972,4.229,3.322,4.229C79.914,71.371,81.886,68.977,81.886,67.131z M83.779,53.612c0-0.875-0.706-1.577-1.582-1.577 c-0.864,0-1.571,0.702-1.571,1.577c0,0.873,0.707,1.579,1.571,1.579C83.088,55.191,83.779,54.485,83.779,53.612z M56.679,96.388 c-6.824,0-11.417,7.694-13.055,6.86c-1.329-0.669-1.598-7.63-1.658-10.235c-0.058,2.605-0.33,9.566-1.656,10.235 c-1.637,0.834-6.233-6.86-13.057-6.86c-1.777,0,4.319-2.468,1.479-6.476c-3.833-1.297-6.399-3.127-6.993-5.221 c-4.153-0.949-6.758-2.178-6.758-3.533l11.828-28.4l-7.367-3.098c-1.187,0.896-2.55,1.294-3.942,0.495 c-0.264-0.155-0.367-0.397-0.562-0.588c1.938,1.068,4.163-1.199,5.481-3.499c1.329-2.288,2.181-5.347,0.29-6.491 c0.261,0.076,0.52,0.037,0.789,0.189c1.189,0.686,1.622,1.788,1.622,3.014l0.896,0.517c0.14,3.019,1.938,5.574,4.464,6.908 c0.256,0.134,0.524,0.248,0.796,0.361c0.809,0.319,1.661,0.578,2.573,0.627c0.108,0.717,0.33,1.439,0.612,2.16 c0.037,0.087,0.076,0.166,0.113,0.253c0.29,0.688,0.638,1.373,1.058,2.027c1.848,2.858,4.878,5.109,8.355,5.109 c5.107,0,9.318-4.835,10.102-9.55c1.432-0.071,2.747-0.524,3.902-1.239l12.993,31.192c0,1.366-2.626,2.595-6.808,3.544 c-0.596,2.088-3.164,3.918-6.982,5.21C52.352,93.909,58.446,96.377,56.679,96.388z M39.601,67.574c0,1.308,1.055,2.362,2.36,2.362 c1.308,0,2.36-1.044,2.36-2.362c0-1.309-1.058-2.363-2.36-2.363C40.661,65.217,39.601,66.271,39.601,67.574z M39.601,75.674 c0,1.308,1.055,2.362,2.36,2.362c1.308,0,2.36-1.044,2.36-2.362c0-1.308-1.058-2.362-2.36-2.362 C40.661,73.316,39.601,74.371,39.601,75.674z M42.275,91.863c-0.108,0-0.206,0.011-0.314,0.011s-0.206-0.011-0.311-0.011 c0.129,0.042,0.3,0.1,0.311,0.1C41.971,91.963,42.151,91.895,42.275,91.863z M67.996,81.659c0.422-0.475-0.785-3.597-1.519-4.214 c-0.738-0.633-13.624,4.225-24.487,4.225c-10.871,0-23.625-4.525-24.447-4.214c-0.82,0.312-2.036,3.011-1.604,3.871 c1.182,2.325,10.418,4.571,26.051,4.571C57.497,85.894,66.34,83.479,67.996,81.659z M36.028,30.981 c-1.102,0-1.988,0.891-1.988,1.988c0,1.094,0.891,1.985,1.988,1.985c1.094,0,1.985-0.892,1.985-1.985 C38.014,31.873,37.123,30.981,36.028,30.981z M47.944,30.981c-1.095,0-1.986,0.891-1.986,1.988c0,1.094,0.891,1.985,1.986,1.985 c1.102,0,1.988-0.892,1.988-1.985C49.932,31.873,49.041,30.981,47.944,30.981z M25.125,33.966c0-1.608,0.788-2.995,1.97-3.902 c-0.201-0.034-0.367-0.152-0.448-0.353c-0.037-0.1-0.058-0.221-0.058-0.387c0-0.119-0.024-0.304-0.055-0.541 c-0.182-1.593-0.62-5.318,2.062-8.332c0.525-0.583,1.158-1.097,1.854-1.561c3.23-9.276,14.449-15.056,20.915-15.056 c0.933,0,1.556,0.142,1.993,0.396c-0.019-0.135-0.045-0.264-0.045-0.396C53.312,1.719,55.029,0,57.148,0 c2.126,0,3.834,1.719,3.834,3.834c0,2.122-1.708,3.836-3.834,3.836c-1.233,0-2.32-0.59-3.021-1.497 c-0.203,2.637-2.407,7.322-0.079,13.091c0.485,0.372,0.938,0.76,1.318,1.192c2.679,3.014,2.247,6.74,2.072,8.332 c-0.036,0.237-0.062,0.427-0.062,0.541c0,0.583-0.296,0.73-0.485,0.762c1.165,0.907,1.945,2.289,1.945,3.887 c0,1.709-0.859,3.209-2.167,4.101c1.213,1.257,1.967,2.953,1.967,4.833c0,3.828-3.105,6.939-6.938,6.939 c-0.281,0-0.551-0.05-0.825-0.087c0,0.032,0,0.053,0,0.082c0,4.097-3.976,9.55-8.891,9.55c-4.912,0-8.889-5.453-8.889-9.55 c0-0.029,0-0.05,0-0.082c-0.269,0.037-0.538,0.087-0.825,0.087c-3.833,0-6.939-3.111-6.939-6.939c0-1.88,0.751-3.581,1.967-4.833 C25.982,37.186,25.12,35.68,25.125,33.966z M47.944,42.791c0-1.097-2.666-1.318-5.962-1.318c-3.293,0-5.962,0.222-5.962,1.318 c0,1.103,2.674,4.638,5.962,4.638C45.278,47.429,47.944,43.894,47.944,42.791z M56.442,30.014 c-0.132-0.068-0.285-0.166-0.475-0.295c-1.16-0.799-4.675-3.22-13.985-3.22c-9.308,0-12.825,2.426-13.985,3.22 c-0.195,0.14-0.34,0.227-0.475,0.295c1.279,5.993-0.216,8.841,2.809,9.326c2.262,0.366,7.591-1.182,9.141-2.041 c0.454,0.712,1.406,1.01,2.51,1.01c1.107,0,2.06-0.298,2.513-1.01c1.551,0.859,6.874,2.413,9.137,2.052 C56.653,38.854,55.17,36.007,56.442,30.014z M50.39,13.576l-0.799,0.736l-1.057-0.243l0.454,0.991l-0.562,0.929l1.073-0.116 l0.72,0.82l0.211-1.065l1.002-0.425l-0.944-0.54L50.39,13.576z M48.597,7.006l-0.29,0.479l0.557-0.065l0.366,0.422l0.114-0.551 l0.511-0.221L49.37,6.795l-0.047-0.562L48.911,6.61l-0.545-0.124L48.597,7.006z M48.36,10.449l-0.422,0.704l0.812-0.092 l0.538,0.609l0.169-0.799l0.756-0.319L49.5,10.148l-0.074-0.817l-0.601,0.557l-0.799-0.182L48.36,10.449z M44.181,7.799 l-0.293,0.48l0.557-0.063l0.369,0.419l0.108-0.546l0.517-0.221l-0.485-0.274l-0.05-0.562l-0.409,0.377l-0.546-0.124L44.181,7.799z M41.734,12.928l-1.176,1.957l2.262-0.261l1.495,1.719l0.454-2.231l2.102-0.891l-1.983-1.124L44.69,9.824l-1.68,1.537l-2.226-0.506 L41.734,12.928z M37.296,13.215l-0.422,0.702l0.815-0.092l0.541,0.617l0.158-0.799l0.759-0.324l-0.717-0.406l-0.071-0.81 l-0.604,0.551l-0.799-0.179L37.296,13.215z M35.034,15.509l-0.292,0.475l0.556-0.063l0.367,0.422l0.108-0.551l0.52-0.216 l-0.485-0.277l-0.055-0.562l-0.411,0.375l-0.538-0.119L35.034,15.509z M27.522,28.674c0,0.05,0.011,0.103,0.016,0.158 c1.421-0.978,5.06-3.322,14.444-3.322c9.387,0,13.025,2.338,14.444,3.322c0.005-0.05,0.016-0.103,0.016-0.158 c0.174-1.458,0.569-4.875-1.814-7.549c-2.275-2.57-6.536-3.87-12.646-3.87c-6.106,0-10.368,1.3-12.646,3.87 C26.956,23.799,27.348,27.216,27.522,28.674z M41.95,34.552c-0.994,0-1.84,0.599-2.202,1.46c0.538-0.62,1.305-1.031,2.191-1.031 c0.912,0,1.695,0.443,2.236,1.107C43.831,35.192,42.976,34.552,41.95,34.552z M76.127,79.429c0.517-0.253,1.239-1.118,1.234-2.162 c-0.011-1.05,0.596-1.915,0.258-1.909c-0.332,0-0.712,0.854-0.706,1.909C76.923,78.321,76.481,79.038,76.127,79.429z M89.759,102.652c0,2.12-1.819,0.802-4.065,0.802c-2.247,0-4.066,1.318-4.066-0.802c0-1.75,1.266-3.153,2.959-3.617 c-1.008-3.797-2.01-10.536-2.548-16.311c-1.139,0.332-2.352,0.564-3.639,0.564c-1.081,0-2.114-0.169-3.095-0.422 c-0.501,5.832-1.467,12.613-2.474,16.326c1.376,0.617,2.357,1.909,2.357,3.459c0,2.115-1.83,0.797-4.076,0.797 c-2.247,0-4.066,1.318-4.066-0.797c0-1.888,1.456-3.364,3.344-3.707c-0.533-3.454,0.016-11.971,0.411-18.304 c-1.973-1.646-3.201-3.924-3.201-6.439c0-2.494,1.208-4.318,3.153-5.511c0.966,3.46,3.471,5.664,6.846,6.012 c-0.485,0.254-0.955,0.718-1.071,1.635c-0.126,0.929-0.343,3.006-1.466,3.755c0,0,1.835,0.264,3.359,0.253 c1.519-0.016,3.344-0.316,3.344-0.316c-1.129-0.738-1.382-2.805-1.524-3.723c-0.132-0.865-0.559-1.318-1.023-1.571 c3.438-0.296,5.991-2.468,7.004-5.933c1.835,1.207,2.984,2.974,2.984,5.399c0,2.326-1.06,4.403-2.764,6.018 c0.396,6.412,0.992,15.34,0.417,18.805C88.525,99.51,89.759,100.902,89.759,102.652z M79.366,80.82 c-0.312,0.021-0.628,0.043-0.934,0.043s-0.628-0.011-0.938-0.021c0.042,0.485,0.453,0.865,0.943,0.854 C78.933,81.686,79.333,81.295,79.366,80.82z"/> </g> </g>
</svg>